<?xml version="1.0" encoding="UTF-8" standalone="no"?>
<!-- Generator: Adobe Illustrator 16.2.1, SVG Export Plug-In . SVG Version: 6.00 Build 0)  -->

<svg
   xmlns:dc="http://purl.org/dc/elements/1.1/"
   xmlns:cc="http://creativecommons.org/ns#"
   xmlns:rdf="http://www.w3.org/1999/02/22-rdf-syntax-ns#"
   xmlns:svg="http://www.w3.org/2000/svg"
   xmlns="http://www.w3.org/2000/svg"
   xmlns:sodipodi="http://sodipodi.sourceforge.net/DTD/sodipodi-0.dtd"
   xmlns:inkscape="http://www.inkscape.org/namespaces/inkscape"
   version="1.1"
   id="Layer_1"
   x="0px"
   y="0px"
   width="512px"
   height="512px"
   viewBox="0 0 512 512"
   enable-background="new 0 0 512 512"
   xml:space="preserve"
   inkscape:version="0.91 r13725"
   sodipodi:docname="pin.svg"><metadata
     id="metadata13"><rdf:RDF><cc:Work
         rdf:about=""><dc:format>image/svg+xml</dc:format><dc:type
           rdf:resource="http://purl.org/dc/dcmitype/StillImage" /></cc:Work></rdf:RDF></metadata><defs
     id="defs11" /><sodipodi:namedview
     pagecolor="#ffffff"
     bordercolor="#666666"
     borderopacity="1"
     objecttolerance="10"
     gridtolerance="10"
     guidetolerance="10"
     inkscape:pageopacity="0"
     inkscape:pageshadow="2"
     inkscape:window-width="1680"
     inkscape:window-height="1005"
     id="namedview9"
     showgrid="false"
     inkscape:zoom="1.3010765"
     inkscape:cx="238.10917"
     inkscape:cy="269.3169"
     inkscape:window-x="0"
     inkscape:window-y="0"
     inkscape:window-maximized="0"
     inkscape:current-layer="Layer_1" /><g
     id="g3"
     style="fill:#666666;fill-opacity:1;stroke:#666666;stroke-opacity:1"><path
       d="M256,144c-44.188,0-80,38.609-80,80c0,22.031,11,32.344,32,69.906c18.453,32.984,33.859,62.938,33.859,62.938   c7.641,14.859,20.172,14.875,27.828,0.031c0,0,15.516-30,34.312-62.969c21.406-37.562,32-47.859,32-69.906   C336,182.609,300.188,144,256,144z M256,272c-26.5,0-48-21.5-48-48c0-26.508,21.5-48,48-48c26.516,0,48,21.492,48,48   C304,250.5,282.516,272,256,272z"
       id="path5"
       style="fill:#666666;fill-opacity:1;stroke:#666666;stroke-opacity:1" /><path
       d="M256,0C114.625,0,0,114.609,0,256s114.625,256,256,256c141.406,0,256-114.609,256-256S397.406,0,256,0z M256,472   c-119.281,0-216-96.703-216-216S136.719,40,256,40c119.312,0,216,96.703,216,216S375.312,472,256,472z"
       id="path7"
       style="fill:#666666;fill-opacity:1;stroke:#666666;stroke-opacity:1" /></g></svg>